<?xml version="1.0" encoding="utf-8"?>
<!-- Generator: Adobe Illustrator 23.1.1, SVG Export Plug-In . SVG Version: 6.00 Build 0)  -->
<svg version="1.1" id="Layer_1" xmlns="http://www.w3.org/2000/svg" xmlns:xlink="http://www.w3.org/1999/xlink" x="0px" y="0px"
	 viewBox="0 0 1100 1000" style="enable-background:new 0 0 1100 1000;" xml:space="preserve">
<style type="text/css">
	.st0{fill:none;stroke:#FFFFFF;stroke-width:6.841;stroke-linecap:round;stroke-linejoin:round;stroke-miterlimit:10;}
	.st1{fill:none;stroke:#FFFFFF;stroke-width:9.7844;stroke-linecap:round;stroke-linejoin:round;stroke-miterlimit:10;}
	.st2{fill:none;stroke:#FFFFFF;stroke-width:11.7413;stroke-linecap:round;stroke-linejoin:round;stroke-miterlimit:10;}
	.st3{fill:#FFFFFF;}
	.st4{fill:none;stroke:#FFFFFF;stroke-width:7.5731;stroke-linecap:round;stroke-linejoin:round;stroke-miterlimit:10;}
	.st5{fill:#FFFFFF;stroke:#FFFFFF;stroke-width:0.4892;stroke-miterlimit:10;}
	.st6{fill:none;stroke:#FFFFFF;stroke-width:3.9138;stroke-linecap:round;stroke-linejoin:round;stroke-miterlimit:10;}
	.st7{fill:none;stroke:#FFFFFF;stroke-width:5.8706;stroke-linecap:round;stroke-linejoin:round;stroke-miterlimit:10;}
	.st8{fill:none;stroke:#FFFFFF;stroke-width:7.8275;stroke-linecap:round;stroke-linejoin:round;stroke-miterlimit:10;}
	.st9{fill:none;stroke:#FFFFFF;stroke-width:9.3871;stroke-linecap:round;stroke-linejoin:round;stroke-miterlimit:10;}
	.st10{fill:#FFFFFF;stroke:#FFFFFF;stroke-width:1.9569;stroke-linecap:round;stroke-linejoin:round;stroke-miterlimit:10;}
	.st11{fill:none;stroke:#FFFFFF;stroke-width:6.1365;stroke-linecap:round;stroke-linejoin:round;stroke-miterlimit:10;}
</style>
<g>
	<path class="st0" d="M556.5,311.3c-62,34.4-95.4-30.2-144.6-10.5c-8.5,3.4-14.3,12.6-15.4,19.8"/>
	<path class="st0" d="M394.8,320.6c-10.8-1.2-19.7-17.6-7.3-33.3c15.9-20.1,46.4-14.7,64.7-24.7c15.3-8.3,19.6-16.8,39.9-12.2
		c10.9,2.5,16.4,10.9,23.8,21c16.8,23.2,60-0.5,66.4,31.6c3.6,18.1-10.2,31.7-37.1,38c-72.3,17-105.3-40.7-128.2-14.8
		c-6.9,7.9-20.2,2.5-20.5-4.1"/>
</g>
<path class="st1" d="M416.4,267.5c-9-32.5-3.3-61.7,21.6-87.4"/>
<path class="st2" d="M226.9,634.9c-27.6-37.7-90.4-27.3-105.6,2.5c-13.5,26.5-3.6,74.7,69.7,67.8
	c125.2-11.7,721.7-112.4,759.3-119.4c56.7-10.6,82.2-20.4,82.2,45c0,77.5-2,139.1-2,139.1"/>
<g>
	<path class="st3" d="M185.9,817.1l-5.3,9.5l-0.7,21l-24.8,4l2.8-86.8l24.8-4l-1.1,33.8l19.7-36.8l28.7-4.6L202,797.8l26.7,41.9
		l-29.1,4.7L185.9,817.1z"/>
	<path class="st3" d="M269.8,745.7c24.4-3.9,39.2,11.9,38.4,38.5c-0.9,26.4-17,47.4-41.4,51.3c-24.4,3.9-39.2-12.1-38.4-38.5
		C229.3,770.4,245.4,749.6,269.8,745.7z M269.1,767.4c-9.4,1.5-14.9,12-15.3,25.5c-0.4,13.4,4.3,22.3,13.8,20.8
		c9.4-1.5,15-12.1,15.5-25.5C283.5,774.7,278.5,765.9,269.1,767.4z"/>
	<path class="st3" d="M356.2,732.1c24.4-3.9,39.2,12,38.3,38.5c-0.9,26.4-17,47.4-41.4,51.3c-24.4,3.9-39.2-12.1-38.3-38.5
		C315.8,756.9,331.9,736,356.2,732.1z M355.5,753.8c-9.4,1.5-14.9,12-15.3,25.5c-0.5,13.4,4.3,22.3,13.8,20.8
		c9.4-1.5,15-12.1,15.5-25.5C369.9,761.1,364.9,752.3,355.5,753.8z"/>
	<path class="st3" d="M404.7,725.8l33-5.3c25.7-4.1,40.3,10.8,39.4,36.8c-0.9,26.2-16.6,45.9-42.3,50l-33.2,5.3L404.7,725.8z
		 M435.5,785.8c9.7-1.6,16-10.7,16.5-24.5c0.5-14.7-4.8-21-15-19.3l-8.3,1.3l-1.5,43.9L435.5,785.8z"/>
	<path class="st3" d="M527.2,780.9l-25,4l-3,12.1l-25.6,4.1l28.7-90.9l30-4.8l22.7,82.7l-25.6,4.1L527.2,780.9z M507.6,763.1
		l15.6-2.5l-6.6-31.4L507.6,763.1z"/>
	<path class="st3" d="M592.9,753.6l-6.3,1l-1,28.4l-24.8,4l3-86.8l38.5-6.2c18.1-2.9,28.9,8.2,28.4,24.2c-0.5,14.6-8.1,23.2-14,27.3
		l12.4,30.5l-27.4,4.4L592.9,753.6z M597.7,715.5l-9.8,1.6l-0.6,16.5l9.8-1.6c4.5-0.7,8.2-4.4,8.4-9.6
		C605.7,717.2,602.2,714.8,597.7,715.5z"/>
	<path class="st3" d="M641.8,687.6l24.8-4l-3,86.8l-24.8,4L641.8,687.6z"/>
	<path class="st3" d="M679.3,745c2.2,1.3,5.4,2.1,8.8,1.6c5.1-0.8,8.9-4.5,9.1-10l2-58.1l24.8-4l-2,58.8
		c-0.7,20.4-13.5,31.5-32,34.5c-6.8,1.1-14,0.9-19.3-2.2L679.3,745z"/>
	<path class="st3" d="M775.9,740.9l-25,4l-3,12.1l-25.6,4.1l28.7-90.9l30-4.8l22.7,82.7l-25.6,4.1L775.9,740.9z M756.3,723.2
		l15.6-2.5l-6.6-31.4L756.3,723.2z"/>
	<path class="st3" d="M857.8,705.4l-22,3.5l-1.2,34l-24.8,4l3-86.8l24.8-4l-1.1,31.4l22-3.5l1.1-31.4l24.8-4l-3,86.8l-24.8,4
		L857.8,705.4z"/>
	<path class="st3" d="M910.9,665.9l-18.1,2.9l0.7-21.5l61-9.7l-0.7,21.5l-18,2.9l-2.3,65.4l-24.9,4L910.9,665.9z"/>
	<path class="st3" d="M962.8,636.5l24.8-3.9l-3,86.8l-24.8,3.9L962.8,636.5z"/>
</g>
<path class="st1" d="M413.6,409.7c14.6-29.9,15-64.5,14.6-70.3"/>
<path class="st4" d="M567.1,463.9"/>
<path class="st1" d="M348.1,498.2c-70.6,69.2-54.1,144.2-20.8,168.2"/>
<path class="st1" d="M658.2,362.5c22.4,93.5,144.3,96.8,148.8,226.1"/>
<path class="st2" d="M698.3,424.8c25.1-39.9,70-69.4,89.1-56.3c10.6,9.3,3.8,24.2,20.5,45.9c27.9,36.2,71.7,91.2,67.4,162.2"/>
<ellipse transform="matrix(0.7797 -0.6262 0.6262 0.7797 -46.3137 329.6466)" class="st5" cx="445.3" cy="230.6" rx="9.7" ry="9.7"/>
<ellipse transform="matrix(0.7797 -0.6262 0.6262 0.7797 -30.8805 396.1913)" class="st5" cx="547.6" cy="242" rx="9.7" ry="9.7"/>
<path class="st6" d="M431.6,134.3"/>
<g>
	<g>
		<g>
			<path class="st2" d="M446.9,157.8C473.8,106,514.6,84.7,574,91.7c55.7,6.6,102.6,45.6,108.5,123.8"/>
			<path class="st2" d="M414.8,212.6c-53.5-4.1-46.3-53.5-8.9-56c30.8-2.1,64.6,18.8,91.7,31.1c46.2,21.1,120,39.3,183,29.7"/>
			<path class="st2" d="M609.1,224.4c-5.7,76.7,4.5,141.6,31.8,141.6c46.7,0,43.1-123.6,41.6-149"/>
		</g>
		<line class="st7" x1="640.1" y1="366.1" x2="640.1" y2="440.4"/>
	</g>
	<path class="st8" d="M565.8,93.1c0-10.3,8.3-18.6,18.6-18.6S603,82.8,603,93.1"/>
</g>
<path class="st1" d="M352.3,588.8c27.8-25.8,69-36.2,97.7-40c40.8-5.3,55.5,3.5,55.8,18.5c0.6,25.6-18.6,27.6-16,71.3"/>
<path class="st9" d="M717.6,520.3c-27.1-30-70.3-46.3-97-54c-13.7-3.9-31-7.3-44.9-3.1c-13.6,4.2-28.3,15.5-25.7,30.7
	c2.5,14.7,19.5,21.5,19.8,35.4c0.4,22.5-0.4,47.7,30.9,62c2.2,1,29.3,13.6,42.5,25.9"/>
<g>
	<path class="st10" d="M334.1,443.1c-0.8,2.4-3.1,3.9-7,2.2c-8.7-3.4-130.1-58.2-139.1-65.2c10.1,3.1,131.8,52.6,141.8,56.6
		C333,438.2,335.2,439.8,334.1,443.1z M282.4,422.6C282.4,422.6,282.4,422.6,282.4,422.6C282.4,422.6,282.4,422.6,282.4,422.6z
		 M282.4,422.6C282.4,422.6,282.4,422.6,282.4,422.6C282.4,422.6,282.4,422.6,282.4,422.6z"/>
</g>
<g>
	<path class="st10" d="M330.6,401.3c-1,2.4-3.4,4-7.2,2.1c-8.5-3.9-106.1-62.8-114.6-69.7c9.9,3.7,108.5,56.6,118.3,61.2
		C329.8,396.4,332,398.1,330.6,401.3z"/>
</g>
<g>
	<path class="st10" d="M365.9,285.1c-1.5,2.1-4.5,3.3-7.7,0.6c-7.4-5.7-59.1-52.7-65.9-61.3c11.3,7.5,65,48.3,71.7,53.6
		C366.4,280,368,282.3,365.9,285.1z"/>
</g>
<g>
	<path class="st10" d="M388.9,251.7c-1.6,2-4.6,3-7.8,0.2c-7.1-6.1-46.9-49.3-53.2-58.3c8.5,6.3,51.3,43.7,59.4,50.8
		C389.6,246.5,391,248.9,388.9,251.7z"/>
</g>
<g>
	<path class="st10" d="M903.4,551.6c10.6-2.1,63.5-10.2,74-11.4c-9.9,4.7-63.2,19.2-72.4,21c-4.1,0.9-6.2-1.5-6.6-4.1
		C897.9,553.7,900.4,552.3,903.4,551.6z"/>
</g>
<g>
	<path class="st10" d="M897.5,511.9c9.3-2.4,64.4-15.1,76.6-17.2c-9.6,5.2-65.5,24-74.6,26.3c-4.1,1.1-6.4-0.9-6.9-3.4
		C891.9,514.3,894.6,512.8,897.5,511.9z"/>
</g>
<g>
	<path class="st10" d="M882.7,473.4c10.3-3.2,72.3-20.9,82.6-23.2c-9.4,5.7-71.1,29.6-80.1,32.3c-4,1.3-6.4-0.7-7-3.2
		C877.4,475.9,879.8,474.4,882.7,473.4z"/>
</g>
<g>
	<path class="st10" d="M862.9,438.5c10.4-4,81.6-32.8,91.8-35.6c-8.4,5.7-79.5,40.7-89.1,44.2c-3.9,1.5-6.9,0.1-7.6-2.3
		C856.9,441.4,860.1,439.7,862.9,438.5z"/>
</g>
<g>
	<path class="st10" d="M839.2,405.3c9.8-4.6,87.6-42.4,97.5-46.1c-8.5,6.9-85.3,50.7-93.7,54.6c-3.8,1.9-6.9,0.4-7.8-1.9
		C833.8,408.6,836.4,406.7,839.2,405.3z"/>
</g>
<g>
	<path class="st10" d="M274.7,589.9c-0.3,2.5-2.3,5.2-6.5,4.4c-9.2-1.5-92.6-19-102.7-23.4c10.6,0.9,93.4,11.8,104.1,13.7
		C272.6,585.2,275.1,586.5,274.7,589.9z"/>
</g>
<g>
	<path class="st10" d="M286,550.3c-0.5,2.5-2.7,4.6-6.8,3.6c-9.1-2.1-102.5-25.6-112.3-30.6c10.5,1.6,103.6,18.9,114.1,21.4
		C283.9,545.5,286.7,546.9,286,550.3z"/>
</g>
<g>
	<path class="st10" d="M305.6,513.9c-0.6,2.5-2.9,4.6-6.9,3.3c-9-2.5-120.2-35.1-129.7-40.6c10.4,2.1,121.6,28.5,132,31.5
		C304,509.1,306.4,510.6,305.6,513.9z"/>
</g>
<g>
	<path class="st10" d="M331.4,481.7c-0.5,2.5-3.3,4.2-7.4,3c-9.1-2.4-138.2-49.7-147.8-55c10.4,1.9,138.9,43.2,149.7,46.3
		C328.8,476.8,332.1,478.3,331.4,481.7z"/>
</g>
<g>
	<path class="st10" d="M820.3,369.4c9.4-5.3,83.4-50.4,93.1-54.9c-8,7.5-80.5,58.3-88.7,62.9c-3.6,2.1-7,1.1-8.1-1.1
		C815,373.2,817.7,371,820.3,369.4z"/>
</g>
<g>
	<path class="st10" d="M795.4,338.4c9-5.9,80.6-56.2,89.9-61.3c-7.5,8-76.3,62.9-84.1,67.9c-3.5,2.4-6.9,2.3-8.2,0.1
		C791.2,342.2,792.9,340.1,795.4,338.4z"/>
</g>
<g>
	<path class="st10" d="M693.4,372c8.6-6.5,154.3-126.8,163.3-132.5C849.8,248.1,707.5,373.4,700,379c-3.3,2.6-6.8,3.7-8.7,1.3
		C689.2,377.6,689.1,375.8,693.4,372z"/>
</g>
<g>
	<path class="st10" d="M696.9,322c8.1-7.1,114.5-109.3,123-115.6c-6.3,9-111.4,116.6-118.5,122.7c-3.1,2.9-5.4,2.9-7,0.9
		C692.3,327.3,694.7,324.1,696.9,322z M666.7,355.5C666.7,355.5,666.7,355.5,666.7,355.5C666.7,355.5,666.7,355.5,666.7,355.5z
		 M666.7,355.5C666.7,355.5,666.7,355.5,666.7,355.5C666.7,355.5,666.7,355.5,666.7,355.5z"/>
</g>
<g>
	<path class="st10" d="M704.8,260.6c7.4-7.8,73.1-73.5,81.1-80.6c-5.4,9.5-68.3,79.9-74.8,86.6c-2.9,3.1-6,3.6-7.8,1.8
		C700.9,265.9,702.8,262.9,704.8,260.6z M707.4,258.2C707.4,258.2,707.4,258.2,707.4,258.2C707.4,258.2,707.4,258.2,707.4,258.2z
		 M707.5,258.2C707.5,258.2,707.5,258.2,707.5,258.2C707.5,258.2,707.5,258.2,707.5,258.2z"/>
</g>
<g>
	<path class="st10" d="M703.7,205.6c6.8-8.4,37.3-38.5,44.7-46.1c-4.7,9.9-33,43.6-38.9,50.8c-2.6,3.3-5.2,3.9-7.1,2.2
		C699.8,210.2,701.9,208.1,703.7,205.6z M704.7,204.7C704.7,204.7,704.7,204.7,704.7,204.7C704.7,204.7,704.7,204.7,704.7,204.7z
		 M704.7,204.7C704.7,204.7,704.8,204.7,704.7,204.7C704.8,204.7,704.7,204.7,704.7,204.7z"/>
</g>
<path class="st1" d="M448.1,548.4v-19.1c51-28.7,56.4-93.8,55.8-146.4c-0.1-10.6-11.2-16.9-20.9-16.1c-9.3,0.7-18.2,9.6-17.6,18.3
	c-1.5,34.2-4.1,56.6-13.8,79.2c-8.3,19.4-18.2,27.4-26.8,29.7c-6.9-0.5-17.5-9.2-27.6-27.7c-11.7-21.4-12-39.4-14.3-73.6
	c-0.6-9.2-12.9-13.4-19.7-12.6c-8.7,1-15.2,8.2-15.3,16.7c-1,86.9,35,129.4,60.9,135.6l0.7,24"/>
<g>
	<path class="st10" d="M343.2,366.9c-1.7,2.6-5.2,1.8-8.8-0.5c-8-4.9-94.4-66.4-102-74.3c9.4,4.8,98.8,61,107.9,66.7
		C344.9,362.3,345,364.1,343.2,366.9z"/>
</g>
<g>
	<path class="st10" d="M401.4,362.6c-1.4,2.1-3.6,2.3-7-0.2c-7.6-5.4-126.4-98.9-133.5-107.3c9.1,5.5,128.5,93.5,137.3,99.8
		C400.5,356.7,403.3,359.6,401.4,362.6z"/>
</g>
<path class="st11" d="M381.2,408.6c-5.8-7.3-20.4-8.7-30.8-0.5"/>
<path class="st11" d="M502.9,398.6c-3-5.1-21.8-13-34.2-4.5"/>
<line class="st7" x1="504.3" y1="404" x2="569" y2="463.3"/>
<line class="st7" x1="383.1" y1="411.2" x2="445" y2="444.5"/>
<line class="st7" x1="507.1" y1="470.2" x2="548.6" y2="489.5"/>
<path class="st2" d="M921.1,855.8c10.9,21.1,29.9,27.7,53.2,26.2c20.9-1.3,42.6-20.2,48.1-35.2c10.2-27.9,4.8-75.9-68.5-69
	c-125.2,11.7-721.7,112.4-759.3,119.4c-56.7,10.6-82.2,20.4-82.2-45c0-77.5,2-136.2,2-136.2"/>
<g>
	<rect x="701.1" y="862.3" class="st3" width="13.5" height="53.5"/>
	<polygon class="st3" points="886.5,862.3 846.1,862.3 846.1,862.3 846.1,872.2 846.1,875.8 859.6,875.8 859.6,915.8 873.1,915.8 
		873.1,875.8 886.5,875.8 	"/>
	<polygon class="st3" points="668.7,889 655.6,862.3 640.4,862.3 668.7,915.8 697.7,862.3 682.6,862.3 	"/>
	<polygon class="st3" points="751.7,889.1 721.3,862.3 721.3,915.8 734.8,915.8 734.8,892 765.2,918.7 765.2,862.3 751.7,862.3 	"/>
	<path class="st3" d="M808.4,895.8c-2.1,3.5-5.7,6-10.1,6.5c-7.3,0.7-13.8-4.6-14.5-11.9c-0.7-7.3,4.6-13.8,11.9-14.5
		c4.4-0.4,8.4,1.3,11.2,4.3l9.9-9.1c-5.5-6-13.7-9.5-22.4-8.6c-14.7,1.5-25.4,14.5-24,29.2c1.5,14.7,14.5,25.4,29.2,24
		c8.7-0.9,16.1-5.9,20.3-12.8L808.4,895.8z"/>
	<circle class="st3" cx="801.8" cy="884.6" r="1.6"/>
	<path class="st3" d="M816.2,882.9l-6.9,0.7c-0.1,0-0.2,0.1-0.2,0.3c1,2.4,1.3,5.2,0.8,7.8c0,0.1,0.1,0.3,0.2,0.3
		c0.6-0.1,1.8-0.3,2.3-0.5c4.4-1.6,4.5-6.1,4.4-7.9C817,883.2,816.6,882.9,816.2,882.9z"/>
	<rect x="825.9" y="862.3" class="st3" width="13.5" height="53.5"/>
</g>
</svg>
